<?xml version="1.0"?>
<svg version="1.1" xmlns="http://www.w3.org/2000/svg" width="400" height="200" style="border: dashed 2px #aaa"><path fill="#a12c2a" d="M32.19,114.73c0,0.27-0.12,0.45-0.48,0.6c-1.98,0.81-3.78,1.23-5.97,1.23c-6.33,0-9.42-4.47-9.42-10.65c0-6.15,3.69-10.86,9.72-10.86c2.07,0,3.93,0.42,5.64,1.26c0.36,0.18,0.48,0.33,0.48,0.51c0,0.12-0.03,0.24-0.09,0.39l-0.69,1.89c-0.09,0.27-0.24,0.39-0.42,0.39c-0.09,0-0.21-0.06-0.33-0.12c-1.5-0.78-2.85-1.08-4.35-1.08c-4.17,0-5.79,3.84-5.79,7.47c0,4.62,2.16,7.56,5.85,7.56c1.44,0,2.91-0.33,4.32-0.96c0.15-0.06,0.27-0.12,0.36-0.12c0.21,0,0.36,0.15,0.48,0.45l0.6,1.62c0.06,0.15,0.09,0.3,0.09,0.42z M44.925,97.33c0,0.48-0.21,0.63-0.63,0.63l-1.71,0l0,15.72l1.62,0c0.42,0,0.63,0.27,0.63,0.63l0,1.29c0,0.36-0.15,0.6-0.54,0.6l-7.14,0c-0.39,0-0.6-0.24-0.6-0.57l0-1.35c0-0.42,0.18-0.6,0.6-0.6l1.59,0l0-15.72l-1.74,0c-0.42,0-0.6-0.21-0.6-0.6l0-1.32c0-0.33,0.18-0.6,0.54-0.6l7.35,0c0.42,0,0.63,0.27,0.63,0.57l0,1.32z M68.16,115.39c0,0.66-0.27,0.81-0.72,0.81l-2.01,0c-0.45,0-0.84-0.21-1.14-0.63l-9.78-13.38l-0.06,0l0,13.23c0,0.57-0.27,0.78-0.78,0.78l-2.16,0c-0.57,0-0.81-0.15-0.81-0.75l0-19.2c0-0.63,0.27-0.81,0.81-0.81l1.95,0c0.48,0,0.72,0.15,1.02,0.57l9.87,13.56l0.06,0l0-13.35c0-0.57,0.27-0.78,0.78-0.78l2.25,0c0.63,0,0.72,0.33,0.72,0.81l0,19.14z M86.955,115.48c0,0.48-0.21,0.72-0.72,0.72l-11.13,0c-0.6,0-0.81-0.15-0.81-0.81l0-19.2c0-0.48,0.21-0.75,0.69-0.75l11.31,0c0.48,0,0.63,0.18,0.63,0.51l0,0.18l-0.21,1.8c-0.06,0.54-0.39,0.63-1.02,0.63l-7.53,0l0,5.43l6.93,0c0.57,0,0.75,0.24,0.75,0.66l0,1.71c0,0.51-0.21,0.72-0.72,0.72l-6.96,0l0,6l8.04,0c0.51,0,0.75,0.21,0.75,0.69l0,1.71z M105.81,101.98c0,4.65-3.51,6.93-7.92,6.93c-0.24,0-1.59-0.06-1.8-0.09l0,6.66c0,0.45-0.18,0.72-0.75,0.72l-2.4,0c-0.48,0-0.72-0.21-0.72-0.81l0-19.14c0-0.6,0.18-0.81,0.75-0.81l4.35,0c3.18,0,5.52,0.6,6.99,2.28c0.96,1.11,1.5,2.64,1.5,4.26z M101.91,102.13c0-2.73-1.68-3.69-4.26-3.69l-1.56,0l0,7.44c0.24,0,1.59,0.03,1.77,0.03c2.55,0,4.05-1.2,4.05-3.78z M122.865,115.48c0,0.54-0.27,0.72-0.72,0.72l-10.68,0c-0.54,0-0.78-0.18-0.78-0.84l0-19.17c0-0.48,0.24-0.75,0.72-0.75l2.4,0c0.54,0,0.75,0.21,0.75,0.78l0,16.77l7.59,0c0.51,0,0.72,0.24,0.72,0.69l0,1.8z M135.33,97.33c0,0.48-0.21,0.63-0.63,0.63l-1.71,0l0,15.72l1.62,0c0.42,0,0.63,0.27,0.63,0.63l0,1.29c0,0.36-0.15,0.6-0.54,0.6l-7.14,0c-0.39,0-0.6-0.24-0.6-0.57l0-1.35c0-0.42,0.18-0.6,0.6-0.6l1.59,0l0-15.72l-1.74,0c-0.42,0-0.6-0.21-0.6-0.6l0-1.32c0-0.33,0.18-0.6,0.54-0.6l7.35,0c0.42,0,0.63,0.27,0.63,0.57l0,1.32z M156.585,115.75c0,0.24-0.15,0.45-0.57,0.45l-2.85,0c-0.57,0-0.9-0.21-1.17-0.66l-4.14-6.99l-0.03,0l-4.14,6.99c-0.27,0.48-0.57,0.66-1.2,0.66l-2.49,0c-0.3,0-0.54-0.15-0.54-0.42c0-0.12,0.06-0.27,0.15-0.42l6.21-9.84l-5.82-9.3c-0.09-0.12-0.09-0.27-0.09-0.39c0-0.24,0.18-0.39,0.42-0.39l2.97,0c0.45,0,0.81,0.21,1.08,0.66l3.69,6.21l0.03,0l3.78-6.3c0.24-0.42,0.48-0.57,1.02-0.57l2.76,0c0.3,0,0.45,0.18,0.45,0.39c0,0.15-0.06,0.3-0.15,0.42l-5.91,8.97l6.42,10.11c0.09,0.12,0.12,0.27,0.12,0.42z"/><path fill="#070a21" d="M179.728,116.8l0-1.764l-4.984,0q-3.472,0-5.824-2.352t-2.352-5.824q0-3.192,2.352-5.488t5.824-2.296l4.984,0l0-1.82l-4.984,0q-4.228,0-7.084,2.8q-2.856,2.772-2.856,6.804q0,4.284,2.856,7.084q2.8,2.856,7.084,2.856l4.984,0z M183.69952,116.828l1.764,0l0-19.684l-1.764,0l0,19.684z M189.79904,116.8l1.736,0l0-11.872q0-2.352,1.792-4.2q1.792-1.792,4.144-1.792t4.2,1.792q1.792,1.848,1.792,4.2l0,11.872l1.736,0l0-11.872q0-3.192-2.268-5.46t-5.46-2.268q-3.136,0-5.404,2.268t-2.268,5.46l0,11.872z M211.10256,111.424q0-1.344,0.952-2.436q0.952-1.148,2.296-1.148l0.364,0l5.236,0l0-1.736l-5.236,0l-0.364,0q-1.428-0.28-2.338-1.232t-0.91-2.268q0-1.652,0.966-2.618t2.646-0.966l9.52,0l0-1.764l-9.52,0q-2.156,0-3.752,1.596q-1.596,1.54-1.596,3.752q0,1.4,0.532,2.548t1.568,1.652q-1.036,0.756-1.568,1.988t-0.532,2.632q0,2.184,1.596,3.724q1.624,1.624,3.752,1.624l9.52,0l0-1.848l-9.52,0q-1.68,0-2.646-0.952t-0.966-2.548z M242.59808,97.088l-2.128,0l-5.964,14.812l-5.628-14.812l-1.764,0l7.392,19.712z M247.8296,111.424q0-1.344,0.952-2.436q0.952-1.148,2.296-1.148l0.364,0l5.236,0l0-1.736l-5.236,0l-0.364,0q-1.428-0.28-2.338-1.232t-0.91-2.268q0-1.652,0.966-2.618t2.646-0.966l9.52,0l0-1.764l-9.52,0q-2.156,0-3.752,1.596q-1.596,1.54-1.596,3.752q0,1.4,0.532,2.548t1.568,1.652q-1.036,0.756-1.568,1.988t-0.532,2.632q0,2.184,1.596,3.724q1.624,1.624,3.752,1.624l9.52,0l0-1.848l-9.52,0q-1.68,0-2.646-0.952t-0.966-2.548z M273.02512,106.972l2.1,0q2.128,0,3.528-1.4t1.4-3.528q0-1.876-1.4-3.36q-1.484-1.54-3.528-1.54l-8.764,0l-1.736,0l0,19.656l1.736,0l0-9.828l4.564,0l5.964,9.828l2.1,0z M266.36112,105.236l0-6.328l8.764,0q1.288,0,2.268,0.924q0.924,0.924,0.924,2.212q0,1.344-0.924,2.268q-0.98,0.924-2.268,0.924l-8.764,0z M288.64464,99.244l10.556,0l0-2.128l-10.556,0q-2.072,0-3.472,1.624q-1.428,1.652-1.428,4.004q0,2.128,1.428,3.696q1.4,1.596,3.472,1.596l2.8,0l2.856,0q1.26,0,2.24,1.064q0.924,1.12,0.924,2.436q0,1.568-0.91,2.548t-2.254,0.98l-10.556,0l0,1.736l10.556,0q2.1,0,3.5-1.456t1.4-3.808q0-2.128-1.4-3.696q-1.428-1.568-3.5-1.568l-2.856,0l-2.8,0q-1.288,0-2.212-1.12q-0.952-1.036-0.952-2.408q0-1.568,0.91-2.534t2.254-0.966z M304.85216,111.424q0-1.344,0.952-2.436q0.952-1.148,2.296-1.148l0.364,0l5.236,0l0-1.736l-5.236,0l-0.364,0q-1.428-0.28-2.338-1.232t-0.91-2.268q0-1.652,0.966-2.618t2.646-0.966l9.52,0l0-1.764l-9.52,0q-2.156,0-3.752,1.596q-1.596,1.54-1.596,3.752q0,1.4,0.532,2.548t1.568,1.652q-1.036,0.756-1.568,1.988t-0.532,2.632q0,2.184,1.596,3.724q1.624,1.624,3.752,1.624l9.52,0l0-1.848l-9.52,0q-1.68,0-2.646-0.952t-0.966-2.548z"/></svg>
