<svg xmlns="http://www.w3.org/2000/svg" version="1.1" xmlns:xlink="http://www.w3.org/1999/xlink" xmlns:svgjs="http://svgjs.dev/svgjs" width="1000" height="1000" viewBox="0 0 1000 1000"><rect width="1000" height="1000" fill="#ffffff"></rect><g transform="matrix(0.7,0,0,0.7,149.5757576072699,439.20930616506735)"><svg viewBox="0 0 396 69" data-background-color="#ee3e38" preserveAspectRatio="xMidYMid meet" height="174" width="1000" xmlns="http://www.w3.org/2000/svg" xmlns:xlink="http://www.w3.org/1999/xlink"><g id="tight-bounds" transform="matrix(1,0,0,1,0.24000001782701474,-0.06192221173765233)"><svg viewBox="0 0 395.52 69.12384390133981" height="69.12384390133981" width="395.52"><g><svg viewBox="0 0 529.0223115230895 92.45564239999999" height="69.12384390133981" width="395.52"><g><svg viewBox="0 0 529.0223115230895 92.45564239999999" height="92.45564239999999" width="529.0223115230895"><g id="textblocktransform"><svg viewBox="0 0 529.0223115230895 92.45564239999999" height="92.45564239999999" width="529.0223115230895" id="textblock"><g><svg viewBox="0 0 529.0223115230895 60.51319999999999" height="60.51319999999999" width="529.0223115230895"><g><svg><g></g><g></g></svg></g><g><svg><g><svg></svg></g><g></g></svg></g><g id="text-0"><svg viewBox="0 0 529.0223115230895 60.51319999999999" height="60.51319999999999" width="529.0223115230895"><g transform="matrix(1,0,0,1,0,11.556599999999996)"><svg width="199.20000000000002" viewBox="2.950000047683716 -37.099998474121094 199.1800079345703 37.39999771118164" height="37.4" data-palette-color="#8d021f"><path d="M15.9 0.3L15.9 0.3Q12.6 0.3 10.15-0.45 7.7-1.2 6.1-3.18 4.5-5.15 3.73-8.85 2.95-12.55 2.95-18.5L2.95-18.5Q2.95-24.1 3.75-27.73 4.55-31.35 6.18-33.4 7.8-35.45 10.3-36.27 12.8-37.1 16.2-37.1L16.2-37.1Q17.75-37.1 19.65-36.9 21.55-36.7 23.4-36.43 25.25-36.15 26.75-35.75L26.75-35.75 26.75-32.8Q25.9-32.95 24.35-33.1 22.8-33.25 20.83-33.38 18.85-33.5 16.8-33.5L16.8-33.5Q14.15-33.5 12.25-32.9 10.35-32.3 9.18-30.68 8-29.05 7.45-26.1 6.9-23.15 6.9-18.45L6.9-18.45Q6.9-13.7 7.43-10.68 7.95-7.65 9.1-6.05 10.25-4.45 12.1-3.85 13.95-3.25 16.7-3.25L16.7-3.25Q20.45-3.25 22.85-3.45 25.25-3.65 26.75-3.9L26.75-3.9 26.75-0.9Q25.25-0.55 23.43-0.28 21.6 0 19.68 0.15 17.75 0.3 15.9 0.3ZM36.9 0L32.9 0 32.9-36.8 36.9-36.8 36.9 0ZM49.25 0L45.3 0 45.3-36.8 48.55-36.8 67.75-6.85 67.75-36.8 71.7-36.8 71.7 0 68.45 0 49.25-29.95 49.25 0ZM86.54 0.2L86.54 0.2Q85.34 0.2 83.99-0.03 82.64-0.25 81.44-0.95 80.24-1.65 79.49-3.08 78.74-4.5 78.74-6.95L78.74-6.95 78.74-29.4Q78.74-31.55 79.37-32.98 79.99-34.4 81.04-35.23 82.09-36.05 83.39-36.43 84.69-36.8 85.99-36.8L85.99-36.8Q89.09-36.75 91.74-36.68 94.39-36.6 96.77-36.52 99.14-36.45 101.39-36.35L101.39-36.35 101.39-33.15 86.99-33.15Q85.04-33.15 83.89-32.1 82.74-31.05 82.74-28.75L82.74-28.75 82.74-20.05 99.19-19.8 99.19-16.75 82.74-16.5 82.74-7.85Q82.74-6 83.37-5.05 83.99-4.1 85.04-3.8 86.09-3.5 87.19-3.5L87.19-3.5 101.39-3.5 101.39-0.3Q99.09-0.15 96.57-0.05 94.04 0.05 91.52 0.1 88.99 0.15 86.54 0.2ZM112.09 0L108.09 0 108.09-36.8 122.74-36.8Q124.34-36.8 126.02-36.38 127.69-35.95 129.14-34.73 130.59-33.5 131.47-31.18 132.34-28.85 132.34-25.05L132.34-25.05Q132.34-21.15 131.42-18.78 130.49-16.4 129.02-15.13 127.54-13.85 125.84-13.4 124.14-12.95 122.54-12.95L122.54-12.95Q121.79-12.95 120.34-13 118.89-13.05 117.27-13.13 115.64-13.2 114.24-13.3 112.84-13.4 112.09-13.45L112.09-13.45 112.09 0ZM112.09-33.2L112.09-16.5 122.04-16.5Q123.79-16.5 125.24-17.25 126.69-18 127.52-19.85 128.34-21.7 128.34-25L128.34-25Q128.34-28.25 127.52-30.03 126.69-31.8 125.34-32.5 123.99-33.2 122.39-33.2L122.39-33.2 112.09-33.2ZM159.74 0L145.69 0Q143.54 0 141.86-0.68 140.19-1.35 139.24-2.98 138.29-4.6 138.29-7.4L138.29-7.4 138.29-36.8 142.29-36.8 142.29-7.95Q142.29-6.15 142.89-5.23 143.49-4.3 144.49-3.98 145.49-3.65 146.54-3.65L146.54-3.65 159.74-3.65 159.74 0ZM168.88 0L164.88 0 164.88-36.8 168.88-36.8 168.88 0ZM202.03 0L197.68 0 174.48-36.8 178.83-36.8 202.03 0ZM178.98 0L174.63 0 186.63-19.25 188.63-15.85 178.98 0ZM202.13-36.8L189.98-17.05 188.08-20.65 197.78-36.8 202.13-36.8Z" opacity="1" transform="matrix(1,0,0,1,0,0)" fill="#8d021f" class="undefined-p-0"></path></svg></g><g><svg xmlns="http://www.w3.org/2000/svg" xmlns:xlink="http://www.w3.org/1999/xlink" version="1.1" x="213.48680000000002" y="0" viewBox="17.299999237060547 12.199999809265137 65.39999389648438 75.60000610351562" style="enable-background:new 0 0 100 100;" xml:space="preserve" height="60.51319999999999" width="52.3487115230894" class="icon-s-0" data-fill-palette-color="accent" id="s-0"><path d="M50 12.2L17.3 31.1v37.8L50 87.8l32.7-18.9V31.1L50 12.2zM32.1 37.4L50 16l17 21.4H32.1zM67.3 39.4L50 70.4l-18.2-31H67.3zM48.1 71l-27.7-4.5 9.8-25.9L48.1 71zM68.9 40.7l10.7 25.9-27.7 4.5L68.9 40.7zM69.2 37.1L52.6 16l27 15.6L69.2 37.1zM29.8 37.1l-9.4-5.5 26.8-15.5L29.8 37.1zM28.8 38.8l-9.5 25V33.3L28.8 38.8zM49 73.2v11.7L20.9 68.7 49 73.2zM51 73.2l28.1-4.5L51 84.9V73.2zM70.3 38.8l10.5-5.6v30.9L70.3 38.8z" fill="#000000" data-fill-palette-color="accent"></path></svg></g><g transform="matrix(1,0,0,1,280.12231152308937,11.556599999999996)"><svg width="248.90000000000006" viewBox="2.950000047683716 -37.099998474121094 248.8800048828125 37.39999771118164" height="37.4" data-palette-color="#8d021f"><path d="M15.9 0.3L15.9 0.3Q12.6 0.3 10.15-0.45 7.7-1.2 6.1-3.18 4.5-5.15 3.73-8.85 2.95-12.55 2.95-18.5L2.95-18.5Q2.95-24.1 3.75-27.73 4.55-31.35 6.18-33.4 7.8-35.45 10.3-36.27 12.8-37.1 16.2-37.1L16.2-37.1Q17.75-37.1 19.65-36.9 21.55-36.7 23.4-36.43 25.25-36.15 26.75-35.75L26.75-35.75 26.75-32.8Q25.9-32.95 24.35-33.1 22.8-33.25 20.83-33.38 18.85-33.5 16.8-33.5L16.8-33.5Q14.15-33.5 12.25-32.9 10.35-32.3 9.18-30.68 8-29.05 7.45-26.1 6.9-23.15 6.9-18.45L6.9-18.45Q6.9-13.7 7.43-10.68 7.95-7.65 9.1-6.05 10.25-4.45 12.1-3.85 13.95-3.25 16.7-3.25L16.7-3.25Q20.45-3.25 22.85-3.45 25.25-3.65 26.75-3.9L26.75-3.9 26.75-0.9Q25.25-0.55 23.43-0.28 21.6 0 19.68 0.15 17.75 0.3 15.9 0.3ZM36.9 0L32.9 0 32.9-36.8 36.9-36.8 36.9 0ZM49.25 0L45.3 0 45.3-36.8 48.55-36.8 67.75-6.85 67.75-36.8 71.7-36.8 71.7 0 68.45 0 49.25-29.95 49.25 0ZM86.54 0.2L86.54 0.2Q85.34 0.2 83.99-0.03 82.64-0.25 81.44-0.95 80.24-1.65 79.49-3.08 78.74-4.5 78.74-6.95L78.74-6.95 78.74-29.4Q78.74-31.55 79.37-32.98 79.99-34.4 81.04-35.23 82.09-36.05 83.39-36.43 84.69-36.8 85.99-36.8L85.99-36.8Q89.09-36.75 91.74-36.68 94.39-36.6 96.77-36.52 99.14-36.45 101.39-36.35L101.39-36.35 101.39-33.15 86.99-33.15Q85.04-33.15 83.89-32.1 82.74-31.05 82.74-28.75L82.74-28.75 82.74-20.05 99.19-19.8 99.19-16.75 82.74-16.5 82.74-7.85Q82.74-6 83.37-5.05 83.99-4.1 85.04-3.8 86.09-3.5 87.19-3.5L87.19-3.5 101.39-3.5 101.39-0.3Q99.09-0.15 96.57-0.05 94.04 0.05 91.52 0.1 88.99 0.15 86.54 0.2ZM123.64 0L118.54 0 105.94-36.8 110.04-36.8 121.14-4.15 132.19-36.8 136.24-36.8 123.64 0ZM148.34 0.2L148.34 0.2Q147.14 0.2 145.79-0.03 144.44-0.25 143.24-0.95 142.04-1.65 141.29-3.08 140.54-4.5 140.54-6.95L140.54-6.95 140.54-29.4Q140.54-31.55 141.16-32.98 141.79-34.4 142.84-35.23 143.89-36.05 145.19-36.43 146.49-36.8 147.79-36.8L147.79-36.8Q150.89-36.75 153.54-36.68 156.19-36.6 158.56-36.52 160.94-36.45 163.19-36.35L163.19-36.35 163.19-33.15 148.79-33.15Q146.84-33.15 145.69-32.1 144.54-31.05 144.54-28.75L144.54-28.75 144.54-20.05 160.99-19.8 160.99-16.75 144.54-16.5 144.54-7.85Q144.54-6 145.16-5.05 145.79-4.1 146.84-3.8 147.89-3.5 148.99-3.5L148.99-3.5 163.19-3.5 163.19-0.3Q160.89-0.15 158.36-0.05 155.84 0.05 153.31 0.1 150.79 0.15 148.34 0.2ZM173.88 0L169.88 0 169.88-36.8 184.38-36.8Q186.19-36.8 187.88-36.38 189.59-35.95 190.96-34.8 192.34-33.65 193.13-31.53 193.94-29.4 193.94-25.95L193.94-25.95Q193.94-22.95 193.28-21.03 192.63-19.1 191.59-17.98 190.53-16.85 189.31-16.32 188.09-15.8 186.94-15.6L186.94-15.6 194.49 0 190.44 0 183.28-15.05Q182.48-15.05 181.28-15.1 180.09-15.15 178.73-15.15 177.38-15.15 176.11-15.2 174.84-15.25 173.88-15.25L173.88-15.25 173.88 0ZM173.88-33.2L173.88-18.3 183.78-18.3Q185.09-18.3 186.19-18.6 187.28-18.9 188.13-19.73 188.99-20.55 189.49-22.05 189.99-23.55 189.99-25.95L189.99-25.95Q189.99-28.25 189.49-29.68 188.99-31.1 188.11-31.88 187.24-32.65 186.13-32.93 185.03-33.2 183.78-33.2L183.78-33.2 173.88-33.2ZM210.73 0.3L210.73 0.3Q209.63 0.3 208.11 0.23 206.58 0.15 204.98 0.03 203.38-0.1 201.96-0.25 200.53-0.4 199.58-0.6L199.58-0.6 199.58-3.65Q200.83-3.55 202.63-3.45 204.43-3.35 206.51-3.3 208.58-3.25 210.58-3.25L210.58-3.25Q212.83-3.25 214.63-3.7 216.43-4.15 217.51-5.35 218.58-6.55 218.58-8.8L218.58-8.8 218.58-11.3Q218.58-13.85 217.28-15.18 215.98-16.5 213.08-16.5L213.08-16.5 209.13-16.5Q204.58-16.5 202.01-18.5 199.43-20.5 199.43-25.4L199.43-25.4 199.43-27.5Q199.43-32.7 202.23-34.9 205.03-37.1 210.13-37.1L210.13-37.1Q211.73-37.1 213.73-36.93 215.73-36.75 217.61-36.52 219.48-36.3 220.73-36.05L220.73-36.05 220.73-33Q218.53-33.2 215.76-33.35 212.98-33.5 210.53-33.5L210.53-33.5Q208.28-33.5 206.63-32.98 204.98-32.45 204.11-31.13 203.23-29.8 203.23-27.35L203.23-27.35 203.23-25.65Q203.23-22.6 204.83-21.45 206.43-20.3 209.28-20.3L209.28-20.3 213.53-20.3Q216.58-20.3 218.53-19.2 220.48-18.1 221.43-16.18 222.38-14.25 222.38-11.75L222.38-11.75 222.38-8.9Q222.38-5.2 220.81-3.2 219.23-1.2 216.61-0.45 213.98 0.3 210.73 0.3ZM236.98 0.2L236.98 0.2Q235.78 0.2 234.43-0.03 233.08-0.25 231.88-0.95 230.68-1.65 229.93-3.08 229.18-4.5 229.18-6.95L229.18-6.95 229.18-29.4Q229.18-31.55 229.81-32.98 230.43-34.4 231.48-35.23 232.53-36.05 233.83-36.43 235.13-36.8 236.43-36.8L236.43-36.8Q239.53-36.75 242.18-36.68 244.83-36.6 247.21-36.52 249.58-36.45 251.83-36.35L251.83-36.35 251.83-33.15 237.43-33.15Q235.48-33.15 234.33-32.1 233.18-31.05 233.18-28.75L233.18-28.75 233.18-20.05 249.63-19.8 249.63-16.75 233.18-16.5 233.18-7.85Q233.18-6 233.81-5.05 234.43-4.1 235.48-3.8 236.53-3.5 237.63-3.5L237.63-3.5 251.83-3.5 251.83-0.3Q249.53-0.15 247.01-0.05 244.48 0.05 241.96 0.1 239.43 0.15 236.98 0.2Z" opacity="1" transform="matrix(1,0,0,1,0,0)" fill="#8d021f" class="undefined-p-1"></path></svg></g></svg></g></svg></g><g transform="matrix(1,0,0,1,132.51418784075267,69.3424424)"><svg viewBox="0 0 263.9939358415841 23.1132" height="23.1132" width="263.9939358415841"><g transform="matrix(1,0,0,1,0,0)"><svg width="263.9939358415841" viewBox="3 -39.650001525878906 576.72998046875 50.5" height="23.1132" data-palette-color="#8d021f"><path d="M3-34.55L9.35-34.55 9.35-5.25 20.5-5.25 19.8 0 3 0 3-34.55ZM23.7-26.45L29.85-26.45 29.85 0 23.7 0 23.7-26.45ZM26.75-39.65Q28.4-39.65 29.42-38.6 30.45-37.55 30.45-35.9L30.45-35.9Q30.45-34.3 29.42-33.25 28.4-32.2 26.75-32.2L26.75-32.2Q25.1-32.2 24.07-33.25 23.05-34.3 23.05-35.9L23.05-35.9Q23.05-37.55 24.07-38.6 25.1-39.65 26.75-39.65L26.75-39.65ZM53.5-29.85L55.05-25.1Q54-24.6 52.52-24.4 51.05-24.2 48.85-24.2L48.85-24.2Q50.95-23.2 51.97-21.53 53-19.85 53-17.4L53-17.4Q53-13.4 50.55-10.95 48.1-8.5 43.9-8.5L43.9-8.5Q42.65-8.5 41.35-8.9L41.35-8.9Q40.45-8.15 40.45-6.85L40.45-6.85Q40.45-5.85 41-5.35 41.55-4.85 43.05-4.85L43.05-4.85 45.85-4.85Q49.85-4.85 52.2-2.78 54.55-0.7 54.55 2.5L54.55 2.5Q54.55 6.3 51.62 8.58 48.7 10.85 43.3 10.85L43.3 10.85Q37.6 10.85 35.32 8.75 33.05 6.65 33.05 2.6L33.05 2.6 38.5 2.6Q38.5 4.75 39.5 5.65 40.5 6.55 43.35 6.55L43.35 6.55Q46.1 6.55 47.25 5.6 48.4 4.65 48.4 2.9L48.4 2.9Q48.4 1.2 47.45 0.4 46.5-0.4 44.5-0.4L44.5-0.4 42.6-0.4Q38.8-0.4 37.05-1.75 35.3-3.1 35.3-5.45L35.3-5.45Q35.3-6.8 36.02-8.03 36.75-9.25 38-10.2L38-10.2Q35.95-11.5 35-13.3 34.05-15.1 34.05-17.7L34.05-17.7Q34.05-22.05 36.65-24.58 39.25-27.1 43.65-27.1L43.65-27.1Q46.9-27.1 49.02-27.8 51.15-28.5 53.5-29.85L53.5-29.85ZM43.65-23Q41.9-23 41-21.75 40.1-20.5 40.1-17.8L40.1-17.8Q40.1-15.25 41-13.88 41.9-12.5 43.6-12.5L43.6-12.5Q45.35-12.5 46.2-13.73 47.05-14.95 47.05-17.85L47.05-17.85Q47.05-20.55 46.22-21.78 45.4-23 43.65-23L43.65-23ZM70.14-27.15Q72.99-27.15 74.64-25.1 76.29-23.05 76.29-19.6L76.29-19.6 76.29 0 70.14 0 70.14-18.9Q70.14-20.8 69.62-21.63 69.09-22.45 68.09-22.45L68.09-22.45Q65.99-22.45 63.94-18.5L63.94-18.5 63.94 0 57.79 0 57.79-37 63.94-37.65 63.94-23.3Q65.19-25.25 66.67-26.2 68.14-27.15 70.14-27.15L70.14-27.15ZM92.99-5L95.14-1.2Q92.69 0.75 89.39 0.75L89.39 0.75Q85.94 0.75 84.14-1.23 82.34-3.2 82.34-6.6L82.34-6.6 82.34-22 79.24-22 79.24-26.45 82.34-26.45 82.34-32.3 88.49-33.05 88.49-26.45 93.49-26.45 92.89-22 88.49-22 88.49-6.6Q88.49-4.2 90.54-4.2L90.54-4.2Q91.19-4.2 91.69-4.38 92.19-4.55 92.99-5L92.99-5ZM105.04-27.15Q109.74-27.15 112.99-24.05L112.99-24.05 110.64-20.7Q109.24-21.7 107.99-22.2 106.74-22.7 105.44-22.7L105.44-22.7Q103.99-22.7 103.16-21.93 102.34-21.15 102.34-19.8L102.34-19.8Q102.34-18.45 103.26-17.63 104.19-16.8 106.99-15.7L106.99-15.7Q110.44-14.35 112.09-12.5 113.74-10.65 113.74-7.55L113.74-7.55Q113.74-3.7 111.04-1.48 108.34 0.75 104.19 0.75L104.19 0.75Q101.49 0.75 99.21-0.23 96.94-1.2 95.24-2.95L95.24-2.95 98.24-6.25Q101.04-3.8 103.94-3.8L103.94-3.8Q105.59-3.8 106.54-4.67 107.49-5.55 107.49-7.1L107.49-7.1Q107.49-8.25 107.09-8.97 106.69-9.7 105.69-10.33 104.69-10.95 102.69-11.7L102.69-11.7Q99.24-13.05 97.76-14.85 96.29-16.65 96.29-19.45L96.29-19.45Q96.29-22.8 98.66-24.98 101.04-27.15 105.04-27.15L105.04-27.15ZM119.99-7.05Q121.59-7.05 122.61-5.98 123.64-4.9 123.64-3.25L123.64-3.25Q123.64-2.55 123.41-1.78 123.19-1 122.84-0.08 122.49 0.85 122.39 1.2L122.39 1.2 119.74 8.55 116.29 8.55 118.09 0.1Q116.29-1.2 116.29-3.2L116.29-3.2Q116.29-4.85 117.34-5.95 118.39-7.05 119.99-7.05L119.99-7.05ZM147.38-27.15Q149.53-27.15 151.28-26.43 153.03-25.7 154.63-24.15L154.63-24.15 151.98-20.65Q150.88-21.55 149.91-21.98 148.93-22.4 147.78-22.4L147.78-22.4Q145.53-22.4 144.38-20.28 143.23-18.15 143.23-13.1L143.23-13.1Q143.23-8.2 144.41-6.2 145.58-4.2 147.78-4.2L147.78-4.2Q148.88-4.2 149.78-4.6 150.68-5 151.88-5.85L151.88-5.85 154.63-2.3Q151.43 0.75 147.48 0.75L147.48 0.75Q142.38 0.75 139.56-2.73 136.73-6.2 136.73-13L136.73-13Q136.73-17.4 138.03-20.6 139.33-23.8 141.76-25.48 144.18-27.15 147.38-27.15L147.38-27.15ZM174.58-6.4Q174.58-5.1 174.93-4.48 175.28-3.85 176.08-3.45L176.08-3.45 174.83 0.65Q172.78 0.4 171.55-0.45 170.33-1.3 169.73-3.05L169.73-3.05Q167.43 0.75 163.28 0.75L163.28 0.75Q159.98 0.75 158.03-1.48 156.08-3.7 156.08-7.4L156.08-7.4Q156.08-11.7 158.75-13.95 161.43-16.2 166.53-16.2L166.53-16.2 168.58-16.2 168.58-18.05Q168.58-20.55 167.7-21.58 166.83-22.6 164.88-22.6L164.88-22.6Q162.53-22.6 159.03-21.3L159.03-21.3 157.63-25.3Q159.63-26.2 161.78-26.68 163.93-27.15 165.88-27.15L165.88-27.15Q174.58-27.15 174.58-18.35L174.58-18.35 174.58-6.4ZM164.93-3.7Q167.33-3.7 168.58-7L168.58-7 168.58-12.55 167.13-12.55Q164.58-12.55 163.4-11.4 162.23-10.25 162.23-7.85L162.23-7.85Q162.23-5.8 162.93-4.75 163.63-3.7 164.93-3.7L164.93-3.7ZM204.03-27.15Q206.68-27.15 208.28-25.1 209.88-23.05 209.88-19.6L209.88-19.6 209.88 0 203.83 0 203.83-18.95Q203.83-20.85 203.33-21.68 202.83-22.5 201.88-22.5L201.88-22.5Q199.93-22.5 198.13-18.8L198.13-18.8 198.13 0 192.13 0 192.13-18.95Q192.13-22.5 190.23-22.5L190.23-22.5Q188.18-22.5 186.43-18.8L186.43-18.8 186.43 0 180.38 0 180.38-26.45 185.73-26.45 186.13-23.05Q188.73-27.15 192.38-27.15L192.38-27.15Q194.23-27.15 195.58-26 196.93-24.85 197.63-22.75L197.63-22.75Q200.28-27.15 204.03-27.15L204.03-27.15ZM234.22-13.85Q234.22-13.4 234.07-11.3L234.07-11.3 220.42-11.3Q220.62-7.2 221.85-5.58 223.07-3.95 225.32-3.95L225.32-3.95Q226.87-3.95 228.12-4.48 229.37-5 230.82-6.15L230.82-6.15 233.37-2.65Q229.87 0.75 224.97 0.75L224.97 0.75Q219.77 0.75 217-2.85 214.22-6.45 214.22-13L214.22-13Q214.22-19.55 216.87-23.35 219.52-27.15 224.37-27.15L224.37-27.15Q229.02-27.15 231.62-23.78 234.22-20.4 234.22-13.85L234.22-13.85ZM228.22-15.3L228.22-15.65Q228.22-19.4 227.32-21.13 226.42-22.85 224.42-22.85L224.42-22.85Q222.57-22.85 221.6-21.18 220.62-19.5 220.42-15.3L220.42-15.3 228.22-15.3ZM250.17-27.1Q251.32-27.1 252.22-26.75L252.22-26.75 251.22-20.85Q250.22-21.1 249.37-21.1L249.37-21.1Q247.47-21.1 246.37-19.45 245.27-17.8 244.67-14.55L244.67-14.55 244.67 0 238.52 0 238.52-26.45 243.87-26.45 244.32-21.85Q246.17-27.1 250.17-27.1L250.17-27.1ZM271.97-6.4Q271.97-5.1 272.32-4.48 272.67-3.85 273.47-3.45L273.47-3.45 272.22 0.65Q270.17 0.4 268.94-0.45 267.72-1.3 267.12-3.05L267.12-3.05Q264.82 0.75 260.67 0.75L260.67 0.75Q257.37 0.75 255.42-1.48 253.47-3.7 253.47-7.4L253.47-7.4Q253.47-11.7 256.14-13.95 258.82-16.2 263.92-16.2L263.92-16.2 265.97-16.2 265.97-18.05Q265.97-20.55 265.09-21.58 264.22-22.6 262.27-22.6L262.27-22.6Q259.92-22.6 256.42-21.3L256.42-21.3 255.02-25.3Q257.02-26.2 259.17-26.68 261.32-27.15 263.27-27.15L263.27-27.15Q271.97-27.15 271.97-18.35L271.97-18.35 271.97-6.4ZM262.32-3.7Q264.72-3.7 265.97-7L265.97-7 265.97-12.55 264.52-12.55Q261.97-12.55 260.79-11.4 259.62-10.25 259.62-7.85L259.62-7.85Q259.62-5.8 260.32-4.75 261.02-3.7 262.32-3.7L262.32-3.7ZM280.17-7.05Q281.77-7.05 282.79-5.98 283.82-4.9 283.82-3.25L283.82-3.25Q283.82-2.55 283.59-1.78 283.37-1 283.02-0.08 282.67 0.85 282.57 1.2L282.57 1.2 279.92 8.55 276.47 8.55 278.27 0.1Q276.47-1.2 276.47-3.2L276.47-3.2Q276.47-4.85 277.52-5.95 278.57-7.05 280.17-7.05L280.17-7.05ZM316.91-13.85Q316.91-13.4 316.76-11.3L316.76-11.3 303.11-11.3Q303.31-7.2 304.54-5.58 305.76-3.95 308.01-3.95L308.01-3.95Q309.56-3.95 310.81-4.48 312.06-5 313.51-6.15L313.51-6.15 316.06-2.65Q312.56 0.75 307.66 0.75L307.66 0.75Q302.46 0.75 299.69-2.85 296.91-6.45 296.91-13L296.91-13Q296.91-19.55 299.56-23.35 302.21-27.15 307.06-27.15L307.06-27.15Q311.71-27.15 314.31-23.78 316.91-20.4 316.91-13.85L316.91-13.85ZM310.91-15.3L310.91-15.65Q310.91-19.4 310.01-21.13 309.11-22.85 307.11-22.85L307.11-22.85Q305.26-22.85 304.29-21.18 303.31-19.5 303.11-15.3L303.11-15.3 310.91-15.3ZM333.56-27.15Q336.41-27.15 338.06-25.1 339.71-23.05 339.71-19.6L339.71-19.6 339.71 0 333.56 0 333.56-18.9Q333.56-20.8 333.03-21.63 332.51-22.45 331.51-22.45L331.51-22.45Q329.41-22.45 327.36-18.5L327.36-18.5 327.36 0 321.21 0 321.21-26.45 326.56-26.45 327.01-23Q328.36-25.1 329.88-26.13 331.41-27.15 333.56-27.15L333.56-27.15ZM356.41-5L358.56-1.2Q356.11 0.75 352.81 0.75L352.81 0.75Q349.36 0.75 347.56-1.23 345.76-3.2 345.76-6.6L345.76-6.6 345.76-22 342.66-22 342.66-26.45 345.76-26.45 345.76-32.3 351.91-33.05 351.91-26.45 356.91-26.45 356.31-22 351.91-22 351.91-6.6Q351.91-4.2 353.96-4.2L353.96-4.2Q354.61-4.2 355.11-4.38 355.61-4.55 356.41-5L356.41-5ZM379.95-13.85Q379.95-13.4 379.8-11.3L379.8-11.3 366.15-11.3Q366.35-7.2 367.58-5.58 368.8-3.95 371.05-3.95L371.05-3.95Q372.6-3.95 373.85-4.48 375.1-5 376.55-6.15L376.55-6.15 379.1-2.65Q375.6 0.75 370.7 0.75L370.7 0.75Q365.5 0.75 362.73-2.85 359.95-6.45 359.95-13L359.95-13Q359.95-19.55 362.6-23.35 365.25-27.15 370.1-27.15L370.1-27.15Q374.75-27.15 377.35-23.78 379.95-20.4 379.95-13.85L379.95-13.85ZM373.95-15.3L373.95-15.65Q373.95-19.4 373.05-21.13 372.15-22.85 370.15-22.85L370.15-22.85Q368.3-22.85 367.33-21.18 366.35-19.5 366.15-15.3L366.15-15.3 373.95-15.3ZM395.9-27.1Q397.05-27.1 397.95-26.75L397.95-26.75 396.95-20.85Q395.95-21.1 395.1-21.1L395.1-21.1Q393.2-21.1 392.1-19.45 391-17.8 390.4-14.55L390.4-14.55 390.4 0 384.25 0 384.25-26.45 389.6-26.45 390.05-21.85Q391.9-27.1 395.9-27.1L395.9-27.1ZM411.95-5L414.1-1.2Q411.65 0.75 408.35 0.75L408.35 0.75Q404.9 0.75 403.1-1.23 401.3-3.2 401.3-6.6L401.3-6.6 401.3-22 398.2-22 398.2-26.45 401.3-26.45 401.3-32.3 407.45-33.05 407.45-26.45 412.45-26.45 411.85-22 407.45-22 407.45-6.6Q407.45-4.2 409.5-4.2L409.5-4.2Q410.15-4.2 410.65-4.38 411.15-4.55 411.95-5L411.95-5ZM433.55-6.4Q433.55-5.1 433.9-4.48 434.25-3.85 435.05-3.45L435.05-3.45 433.8 0.65Q431.75 0.4 430.52-0.45 429.3-1.3 428.7-3.05L428.7-3.05Q426.4 0.75 422.25 0.75L422.25 0.75Q418.95 0.75 417-1.48 415.05-3.7 415.05-7.4L415.05-7.4Q415.05-11.7 417.72-13.95 420.4-16.2 425.5-16.2L425.5-16.2 427.55-16.2 427.55-18.05Q427.55-20.55 426.67-21.58 425.8-22.6 423.85-22.6L423.85-22.6Q421.5-22.6 418-21.3L418-21.3 416.6-25.3Q418.6-26.2 420.75-26.68 422.9-27.15 424.85-27.15L424.85-27.15Q433.55-27.15 433.55-18.35L433.55-18.35 433.55-6.4ZM423.9-3.7Q426.3-3.7 427.55-7L427.55-7 427.55-12.55 426.1-12.55Q423.55-12.55 422.37-11.4 421.2-10.25 421.2-7.85L421.2-7.85Q421.2-5.8 421.9-4.75 422.6-3.7 423.9-3.7L423.9-3.7ZM439.34-26.45L445.49-26.45 445.49 0 439.34 0 439.34-26.45ZM442.39-39.65Q444.04-39.65 445.07-38.6 446.09-37.55 446.09-35.9L446.09-35.9Q446.09-34.3 445.07-33.25 444.04-32.2 442.39-32.2L442.39-32.2Q440.74-32.2 439.72-33.25 438.69-34.3 438.69-35.9L438.69-35.9Q438.69-37.55 439.72-38.6 440.74-39.65 442.39-39.65L442.39-39.65ZM463.54-27.15Q466.39-27.15 468.04-25.1 469.69-23.05 469.69-19.6L469.69-19.6 469.69 0 463.54 0 463.54-18.9Q463.54-20.8 463.02-21.63 462.49-22.45 461.49-22.45L461.49-22.45Q459.39-22.45 457.34-18.5L457.34-18.5 457.34 0 451.19 0 451.19-26.45 456.54-26.45 456.99-23Q458.34-25.1 459.87-26.13 461.39-27.15 463.54-27.15L463.54-27.15ZM498.89-27.15Q501.54-27.15 503.14-25.1 504.74-23.05 504.74-19.6L504.74-19.6 504.74 0 498.69 0 498.69-18.95Q498.69-20.85 498.19-21.68 497.69-22.5 496.74-22.5L496.74-22.5Q494.79-22.5 492.99-18.8L492.99-18.8 492.99 0 486.99 0 486.99-18.95Q486.99-22.5 485.09-22.5L485.09-22.5Q483.04-22.5 481.29-18.8L481.29-18.8 481.29 0 475.24 0 475.24-26.45 480.59-26.45 480.99-23.05Q483.59-27.15 487.24-27.15L487.24-27.15Q489.09-27.15 490.44-26 491.79-24.85 492.49-22.75L492.49-22.75Q495.14-27.15 498.89-27.15L498.89-27.15ZM529.09-13.85Q529.09-13.4 528.94-11.3L528.94-11.3 515.29-11.3Q515.49-7.2 516.71-5.58 517.94-3.95 520.19-3.95L520.19-3.95Q521.74-3.95 522.99-4.48 524.24-5 525.69-6.15L525.69-6.15 528.24-2.65Q524.74 0.75 519.84 0.75L519.84 0.75Q514.64 0.75 511.86-2.85 509.09-6.45 509.09-13L509.09-13Q509.09-19.55 511.74-23.35 514.39-27.15 519.24-27.15L519.24-27.15Q523.89-27.15 526.49-23.78 529.09-20.4 529.09-13.85L529.09-13.85ZM523.09-15.3L523.09-15.65Q523.09-19.4 522.19-21.13 521.29-22.85 519.29-22.85L519.29-22.85Q517.44-22.85 516.46-21.18 515.49-19.5 515.29-15.3L515.29-15.3 523.09-15.3ZM545.73-27.15Q548.58-27.15 550.23-25.1 551.88-23.05 551.88-19.6L551.88-19.6 551.88 0 545.73 0 545.73-18.9Q545.73-20.8 545.21-21.63 544.68-22.45 543.68-22.45L543.68-22.45Q541.58-22.45 539.53-18.5L539.53-18.5 539.53 0 533.38 0 533.38-26.45 538.73-26.45 539.18-23Q540.53-25.1 542.06-26.13 543.58-27.15 545.73-27.15L545.73-27.15ZM568.58-5L570.73-1.2Q568.28 0.75 564.98 0.75L564.98 0.75Q561.53 0.75 559.73-1.23 557.93-3.2 557.93-6.6L557.93-6.6 557.93-22 554.83-22 554.83-26.45 557.93-26.45 557.93-32.3 564.08-33.05 564.08-26.45 569.08-26.45 568.48-22 564.08-22 564.08-6.6Q564.08-4.2 566.13-4.2L566.13-4.2Q566.78-4.2 567.28-4.38 567.78-4.55 568.58-5L568.58-5ZM572.63-34.55L579.18-34.55 578.33-12.1 573.48-12.1 572.63-34.55ZM575.93-7.05Q577.58-7.05 578.65-5.9 579.73-4.75 579.73-3.15L579.73-3.15Q579.73-1.55 578.65-0.4 577.58 0.75 575.93 0.75L575.93 0.75Q574.28 0.75 573.2-0.4 572.13-1.55 572.13-3.15L572.13-3.15Q572.13-4.75 573.2-5.9 574.28-7.05 575.93-7.05L575.93-7.05Z" opacity="1" transform="matrix(1,0,0,1,0,0)" fill="#000000" class="undefined-text-1" data-fill-palette-color="secondary" id="text-1"></path></svg></g></svg></g></svg></g></svg></g><g></g></svg></g><defs></defs></svg><rect width="395.52" height="69.12384390133981" fill="none" stroke="none" visibility="hidden"></rect></g></svg></g></svg>